<?xml version="1.0" encoding="UTF-8"?>
<svg id="Layer_1" xmlns="http://www.w3.org/2000/svg" version="1.1" viewBox="0 0 1000 1000">
  <!-- Generator: Adobe Illustrator 30.0.0, SVG Export Plug-In . SVG Version: 2.1.1 Build 123)  -->
  <defs>
    <style>
      .st0 {
        fill: #165dfb;
      }
    </style>
  </defs>
  <g id="twZsd2.tif">
    <path class="st0" d="M630.02,242.74v-126.17h181.57v570.84c0,5.98,7.7,31.84,10.73,38.5,16.83,37.08,60.54,32,93.91,24.58v133.86c0,10.35-85.6,14.47-97.07,13.98-81.85-3.52-135.06-33.61-169.08-107.89-3.4-7.41-6.54-30.87-15.41-30.75-92.49,181.77-355.35,180.41-471.89,22.59-106.59-144.35-106.92-435.21,8.8-574.84,113.35-136.77,336.73-148.24,438.19,7.85,5.91,9.09,8.89,26.14,20.25,27.45ZM420.08,255.91c-197.23,23.64-198.08,441.99-22.06,485.01,299.03,73.08,316.1-520.25,22.06-485.01Z"/>
  </g>
</svg>